<svg width="25" height="32" viewBox="0 0 25 32" fill="none" xmlns="http://www.w3.org/2000/svg">
<path d="M18.172 12.5436C18.172 12.4083 18.0766 12.2938 17.9475 12.2651C17.8185 12.2365 17.785 12.2313 17.7075 12.2235C15.287 11.9138 13.0574 9.88929 12.5723 7.48222C11.6304 2.82161 15.4805 -0.483238 19.3926 0.0580283C21.8235 0.393717 23.5241 1.71045 24.4298 3.95879C25.4904 6.59746 24.6105 9.99858 21.4106 11.6328C20.8145 11.9373 20.19 12.1532 19.5217 12.2339C19.4417 12.2443 19.3617 12.2625 19.2739 12.2807C19.1862 12.299 19.0649 12.4135 19.0572 12.5358C19.0468 12.6763 19.0365 12.8142 19.0365 12.9495C19.0365 14.2454 19.0365 15.544 19.0494 16.8399C19.0494 17.0481 19.1036 17.2536 19.1991 17.4384C19.4365 17.8886 19.7178 18.3205 19.9191 18.7863C20.2339 19.515 20.5023 20.267 20.7655 21.0165C20.8481 21.2507 20.8919 21.5135 20.8919 21.7633C20.9126 24.6466 20.9255 27.5325 20.9358 30.4158C20.9358 30.8764 20.7758 31.0663 20.3113 31.0689C19.1423 31.0767 17.9733 31.0663 16.8044 31.0377C16.3579 31.0273 16.2108 30.8529 16.2108 30.4106C16.2108 27.6053 16.2031 24.8027 16.2289 21.9975C16.2315 21.5786 16.3553 21.1492 16.4921 20.7484C16.7295 20.0562 17.0082 19.3797 17.2895 18.7031C17.4288 18.3674 17.5708 18.0161 17.785 17.7298C18.0611 17.3603 18.1385 16.9752 18.1359 16.5302C18.1308 15.367 18.1566 14.2038 18.1669 13.0406C18.1669 12.8767 18.1669 12.7127 18.1669 12.5384L18.172 12.5436ZM18.5178 0.940188C16.265 0.901154 14.2574 2.29856 13.5709 4.58853C12.5697 7.922 14.8096 10.5711 17.4572 11.2086C19.7436 11.7603 22.1203 10.6726 23.2815 8.60899C24.0066 7.32088 24.1769 5.9443 23.6944 4.5521C22.9847 2.51715 21.0855 0.906358 18.5204 0.940188H18.5178ZM19.7539 30.1321C19.8984 30.1321 20.0223 30.0202 20.0352 29.8745C20.0481 29.7288 20.0455 29.7522 20.0455 29.6949C20.0352 27.1161 20.0223 24.5347 20.0042 21.9559C20.0042 21.7685 19.9733 21.5707 19.9087 21.3964C19.5655 20.4882 19.2094 19.5878 18.8533 18.6875C18.8533 18.6875 18.8533 18.6849 18.8533 18.6823C18.7604 18.4533 18.4378 18.4481 18.3372 18.6745C18.2366 18.9008 18.3269 18.6953 18.3243 18.7057C18.0946 19.2652 17.9062 19.8429 17.643 20.3841C17.2456 21.2064 17.1114 22.0496 17.1295 22.9655C17.1785 25.1618 17.1424 27.3607 17.145 29.557C17.145 29.6611 17.1527 29.7652 17.163 29.8719C17.1734 29.9786 17.2972 30.1295 17.4443 30.1295H19.7565L19.7539 30.1321Z" fill="#FF7948"/>
<path d="M3.338 26.0611C3.338 24.7568 3.34593 23.4526 3.33272 22.1483C3.32744 21.6937 3.40403 21.278 3.59155 20.8571C3.9798 19.9841 4.32315 19.0903 4.69291 18.2096C4.75365 18.0641 4.81704 17.903 4.92797 17.7965C5.26075 17.4769 5.29773 17.0924 5.29244 16.6611C5.27132 15.2607 5.27132 13.8603 5.28188 12.4625C5.28188 12.1586 5.15511 11.9533 4.93589 11.7662C3.96923 10.9452 3.00258 10.1268 2.04384 9.29543C1.60806 8.91611 1.17491 8.53158 0.770814 8.12368C-0.39921 6.94673 -0.214331 5.17741 1.16963 4.23689C1.78237 3.82119 2.39776 3.41329 3.01842 3.00798C4.47369 2.05707 5.92896 1.11135 7.38687 0.165636C7.72758 -0.0552042 7.99697 -0.052606 8.17129 0.157842C8.35353 0.376084 8.31919 0.677466 8.06036 0.86453C7.75927 1.08017 7.43441 1.25944 7.12804 1.4647C5.36112 2.64164 3.60212 3.82899 1.82727 4.99034C1.08775 5.4736 0.974182 6.13352 1.13529 6.86619C1.20132 7.15978 1.47072 7.44297 1.71106 7.66121C2.61961 8.47442 3.55458 9.25906 4.47897 10.0567C4.85666 10.3814 5.22642 10.7114 5.6041 11.0388C6.03989 11.4155 6.26174 11.8624 6.2459 12.4599C6.20892 13.9071 6.22741 15.3542 6.2142 16.8014C6.21156 17.1002 6.27495 17.3236 6.50473 17.5601C6.73979 17.8017 6.87449 18.1524 7.01183 18.472C7.30235 19.1449 7.56383 19.8308 7.84115 20.5089C8.07092 21.0753 8.20034 21.6547 8.1977 22.273C8.18185 24.9309 8.18714 27.5862 8.17657 30.2441C8.17657 30.9845 8.08413 31.0677 7.34197 31.0703C6.27495 31.0729 5.20793 31.0703 4.14091 31.0703C4.01149 31.0703 3.88208 31.0625 3.75266 31.0521C3.52816 31.0339 3.39611 30.917 3.37762 30.6909C3.3697 30.5792 3.36441 30.4675 3.36441 30.3584C3.36441 28.9268 3.36441 27.4953 3.36441 26.0637C3.35649 26.0637 3.34857 26.0637 3.338 26.0637V26.0611ZM7.20463 30.1298C7.22312 29.9635 7.24425 29.857 7.24425 29.7478C7.23897 27.1887 7.23368 24.6295 7.22048 22.073C7.22048 21.8703 7.19671 21.6521 7.12804 21.4624C6.7662 20.4777 6.38588 19.5008 6.00555 18.5214C6.00555 18.5214 6.00555 18.5214 6.00555 18.5188C5.93688 18.3525 5.70182 18.3395 5.60674 18.4928C5.51166 18.6461 5.5011 18.6694 5.46412 18.7604C5.10757 19.6463 4.75365 20.5323 4.42351 21.4287C4.33635 21.6625 4.30202 21.9249 4.30202 22.1743C4.29938 24.6529 4.3073 27.1315 4.31522 29.6127C4.31522 29.7816 4.34692 29.9479 4.3654 30.1298H7.20727H7.20463Z" fill="#FF7948"/>
</svg>
