<svg width="300" height="390" viewBox="0 0 300 390" fill="none" xmlns="http://www.w3.org/2000/svg">
<path opacity="0.6" d="M230.981 93.6724C230.33 69.0958 216.659 60.2534 203.77 57.5226C193.746 55.312 183.2 56.8724 173.956 61.4237C160.937 67.7954 130.212 79.7586 109.641 56.0922C75.5308 16.6916 54.4396 8.62941 46.2374 6.93895C35.3013 6.80892 26.9689 11.8803 26.5784 27.3545C25.2764 74.1671 151.563 254.916 151.563 254.916C152.475 256.216 153.907 258.297 155.599 260.898C158.333 256.867 160.416 253.876 161.718 252.185C161.718 252.185 232.413 140.355 231.111 93.5424L230.981 93.6724Z" fill="#FFC397"/>
<path d="M292.176 79.3737C279.157 18.2572 259.628 9.15478 257.024 7.85443C254.42 6.55408 221.872 -18.1526 172.399 27.3597C141.153 56.0974 100.793 28.66 100.793 28.66C100.793 28.66 68.2447 7.20425 46.2422 6.94418C54.4443 8.63464 75.4053 16.6968 109.646 55.9674C130.347 79.7638 160.942 67.6706 173.961 61.2988C183.205 56.7476 193.75 55.1872 203.775 57.3978C216.664 60.2586 230.334 68.9709 230.985 93.5475C232.287 140.36 161.593 252.19 161.593 252.19C160.291 253.881 158.208 256.872 155.474 260.903C174.612 291.461 237.755 404.201 271.215 387.557C304.674 370.912 305.065 140.49 292.046 79.3737H292.176Z" fill="#FF7948"/>
<path opacity="0.3" d="M26.5877 27.3786C26.9783 11.9044 35.3106 6.83301 46.2468 6.96304C43.5127 6.4429 42.2108 6.57294 42.2108 6.57294C42.2108 6.57294 25.2858 5.27259 16.1723 26.0782C-8.43401 82.2534 -5.96036 362.869 30.4935 381.074C63.0416 397.329 132.695 294.341 155.608 261.052C153.916 258.321 152.614 256.241 151.572 255.07C151.572 255.07 25.2858 74.3213 26.5877 27.5086V27.3786Z" fill="#FFC397"/>
</svg>
